<?xml version="1.0" encoding="UTF-8"?>
<svg id="Layer_1" data-name="Layer 1" xmlns="http://www.w3.org/2000/svg" viewBox="0 0 595.28 841.89">
  <defs>
    <style>
      .cls-1 {
        fill: #f4f4f4;
        stroke-width: 5px;
      }

      .cls-1, .cls-2, .cls-3 {
        stroke-miterlimit: 10;
      }

      .cls-1, .cls-3 {
        stroke: #231f20;
      }

      .cls-2 {
        fill: #ea2626;
        stroke: #9e0000;
        stroke-width: 3px;
      }

      .cls-3 {
        fill: #e8e8e8;
      }
    </style>
  </defs>
  <path class="cls-1" d="M317.36,422.12v-22.29h-13.37v22.29h-22.29v13.38h22.29v22.29h13.37v-22.29h22.29v-13.38h-22.29ZM317.36,422.12v-22.29h-13.37v22.29h-22.29v13.38h22.29v22.29h13.37v-22.29h22.29v-13.38h-22.29ZM317.36,422.12v-22.29h-13.37v22.29h-22.29v13.38h22.29v22.29h13.37v-22.29h22.29v-13.38h-22.29ZM317.36,422.12v-22.29h-13.37v22.29h-22.29v13.38h22.29v22.29h13.37v-22.29h22.29v-13.38h-22.29ZM372.51,365.49h-123.67c-8.48,0-15.35,6.87-15.35,15.35v259.84h154.37v-259.84c0-8.48-6.87-15.35-15.35-15.35ZM346.64,637.45h-71.93v-76.18c0-8.48,6.88-15.35,15.36-15.35h41.21c8.48,0,15.36,6.87,15.36,15.35v76.18ZM310.67,475.91c-26.01,0-47.1-21.09-47.1-47.1s21.09-47.11,47.1-47.11,47.11,21.09,47.11,47.11-21.09,47.1-47.11,47.1ZM317.36,399.83h-13.37v22.29h-22.29v13.38h22.29v22.29h13.37v-22.29h22.29v-13.38h-22.29v-22.29ZM317.36,422.12v-22.29h-13.37v22.29h-22.29v13.38h22.29v22.29h13.37v-22.29h22.29v-13.38h-22.29ZM317.36,422.12v-22.29h-13.37v22.29h-22.29v13.38h22.29v22.29h13.37v-22.29h22.29v-13.38h-22.29Z"/>
  <path class="cls-1" d="M487.29,457.62h-79.04c-8.48,0-15.35,6.87-15.35,15.35v167.71h109.74v-167.71c0-8.48-6.87-15.35-15.35-15.35ZM475.2,583.23c0,2.18-1.76,3.94-3.94,3.94h-46.98c-2.18,0-3.95-1.76-3.95-3.94v-8.2c0-2.18,1.77-3.94,3.95-3.94h46.98c2.18,0,3.94,1.76,3.94,3.94v8.2ZM475.2,545.21c0,2.18-1.76,3.94-3.94,3.94h-46.98c-2.18,0-3.95-1.76-3.95-3.94v-8.2c0-2.18,1.77-3.94,3.95-3.94h46.98c2.18,0,3.94,1.76,3.94,3.94v8.2ZM475.2,507.18c0,2.18-1.76,3.95-3.94,3.95h-46.98c-2.18,0-3.95-1.77-3.95-3.95v-8.19c0-2.18,1.77-3.95,3.95-3.95h46.98c2.18,0,3.94,1.77,3.94,3.95v8.19Z"/>
  <path class="cls-1" d="M213.1,457.62h-79.04c-8.48,0-15.35,6.87-15.35,15.35v167.71h109.74v-167.71c0-8.48-6.87-15.35-15.35-15.35ZM201.02,583.23c0,2.18-1.77,3.94-3.95,3.94h-46.98c-2.18,0-3.95-1.76-3.95-3.94v-8.2c0-2.18,1.77-3.94,3.95-3.94h46.98c2.18,0,3.95,1.76,3.95,3.94v8.2ZM201.02,545.21c0,2.18-1.77,3.94-3.95,3.94h-46.98c-2.18,0-3.95-1.76-3.95-3.94v-8.2c0-2.18,1.77-3.94,3.95-3.94h46.98c2.18,0,3.95,1.76,3.95,3.94v8.2ZM201.02,507.18c0,2.18-1.77,3.95-3.95,3.95h-46.98c-2.18,0-3.95-1.77-3.95-3.95v-8.19c0-2.18,1.77-3.95,3.95-3.95h46.98c2.18,0,3.95,1.77,3.95,3.95v8.19Z"/>
  <polygon class="cls-3" points="339.65 422.12 339.65 435.5 317.36 435.5 317.36 457.79 303.99 457.79 303.99 435.5 281.7 435.5 281.7 422.12 303.99 422.12 303.99 399.83 317.36 399.83 317.36 422.12 339.65 422.12"/>
  <polygon class="cls-2" points="339.65 422.12 339.65 435.5 317.36 435.5 317.36 457.79 303.99 457.79 303.99 435.5 281.7 435.5 281.7 422.12 303.99 422.12 303.99 399.83 317.36 399.83 317.36 422.12 339.65 422.12"/>
</svg>