<?xml version="1.0" encoding="UTF-8"?>
<svg id="Layer_1" data-name="Layer 1" xmlns="http://www.w3.org/2000/svg" viewBox="0 0 595.28 841.89">
  <defs>
    <style>
      .cls-1 {
        fill: #e80037;
      }

      .cls-2 {
        fill: #231f20;
      }

      .cls-3 {
        fill: #385fe8;
      }
    </style>
  </defs>
  <circle class="cls-3" cx="269.06" cy="361.81" r="50.89"/>
  <path class="cls-3" d="M347.64,446.36c-.5,0-1,.02-1.5.07-6.43.57-11.87,4.67-14.21,10.69l-14.86,38.29-5-8.81c-2.99-5.26-8.6-8.52-14.65-8.52h-43.61c-9.29,0-16.85,7.56-16.85,16.85s7.56,16.85,16.85,16.85h33.8l9.42,16.56h-131.66v-31.95c0-39.84,23.46-72.14,52.39-72.14h102.59c19.56,0,33.11,22.11,27.28,22.11Z"/>
  <path class="cls-2" d="M306.91,528.33h24.31l-3.57,9.22c-1.15,2.97-3.91,5.01-7.1,5.25-.2.01-.4.02-.61.02-2.95,0-5.7-1.59-7.18-4.18l-5.86-10.31Z"/>
  <path class="cls-1" d="M421.64,490.63h-47.56l-1.7-2.77-17.69-28.95c-1.64-2.68-4.65-4.2-7.78-3.92-3.13.28-5.83,2.31-6.96,5.24l-21.4,55.14-13.93-24.53c-1.47-2.58-4.21-4.18-7.18-4.18h-43.61c-4.56,0-8.26,3.7-8.26,8.26s3.7,8.26,8.26,8.26h38.8l14.29,25.15,5.86,10.31c1.47,2.59,4.22,4.18,7.18,4.18.2,0,.41,0,.61-.02,3.18-.24,5.95-2.28,7.1-5.25l3.57-9.22,18.07-46.57,13.1,21.43c1.5,2.45,4.18,3.95,7.05,3.95h52.2c4.56,0,8.26-3.7,8.26-8.26s-3.7-8.26-8.26-8.26Z"/>
</svg>